<?xml version="1.0" encoding="iso-8859-1"?>
<!-- Generator: Adobe Illustrator 19.0.0, SVG Export Plug-In . SVG Version: 6.00 Build 0)  -->
<svg version="1.1" id="Layer_1" xmlns="http://www.w3.org/2000/svg" xmlns:xlink="http://www.w3.org/1999/xlink" x="0px" y="0px"
	 viewBox="0 0 512 512" style="enable-background:new 0 0 512 512;" xml:space="preserve">
<g>
	<g>
		<path d="M448,0.05c-27.8,0-51.2,17.9-60.1,42.7H21.3C9.6,42.75,0,52.25,0,64.05s9.6,21.3,21.3,21.3h64v42.7H42.7
			c-11.8,0-21.3,9.6-21.3,21.3v341.3c0,11.8,9.6,21.3,21.3,21.3H384c11.8,0,21.3-9.6,21.3-21.3v-341.3c0-11.8-9.5-21.3-21.3-21.3
			h-42.7v-42.7h46.6c8.8,24.8,32.3,42.7,60.1,42.7c35.3,0,64-28.7,64-64S483.3,0.05,448,0.05z M277.4,426.65
			c-11.8,0-21.3-9.6-21.3-21.3v-64h-85.3v64c0,11.8-9.5,21.3-21.3,21.3c-11.8,0-21.3-9.6-21.3-21.3v-170.6
			c0-11.8,9.6-21.3,21.3-21.3c11.8,0,21.3,9.6,21.3,21.3v64H256v-64c0-11.8,9.6-21.3,21.3-21.3c11.8,0,21.3,9.6,21.3,21.3v170.6h0.1
			C298.7,417.15,289.2,426.65,277.4,426.65z M298.7,128.05H128v-42.7h170.7V128.05z"/>
	</g>
</g>
<g>
</g>
<g>
</g>
<g>
</g>
<g>
</g>
<g>
</g>
<g>
</g>
<g>
</g>
<g>
</g>
<g>
</g>
<g>
</g>
<g>
</g>
<g>
</g>
<g>
</g>
<g>
</g>
<g>
</g>
</svg>
