<svg xmlns="http://www.w3.org/2000/svg" viewBox="0 0 80 80"><defs><style>.cls-1{fill:#fff;}.cls-2{fill:#0023D3;}</style></defs><title>MAP ICONS</title><g id="Layer_10" data-name="Layer 10"><circle class="cls-1" cx="41.18" cy="29.94" r="22.53"/><path class="cls-2" d="M41.18.62a28,28,0,0,0-28,28c0,18.53,25.88,48.38,27,49.64l1,1.14,1-1.14c1.1-1.26,27-31.11,27-49.64A28,28,0,0,0,41.18.62Zm0,49.08A20.76,20.76,0,1,1,62,28.94,20.79,20.79,0,0,1,41.18,49.7Z"/><path class="cls-2" d="M42.43,22.71l4-6.06.94.63-3.32,5a.42.42,0,0,0,.12.59l.16.11a.42.42,0,0,0,.59-.12l3.32-5,.84.56-3.32,5a.43.43,0,0,0,.12.59l.17.11a.42.42,0,0,0,.59-.11L50,19l.84.56-3.32,5a.42.42,0,0,0,.12.59l.17.11a.42.42,0,0,0,.59-.12l3.31-5,1,.65-4,6c-.7,1-2.34,1.21-3.88.48l-3,4.67,5.28,7.54a1.11,1.11,0,0,1-.3,1.55,1.15,1.15,0,0,1-1.64-.25l-4.48-7-4.46,7a1.1,1.1,0,0,1-1.54.3,1.14,1.14,0,0,1-.4-1.6L39.55,32l-3-4.76c-1.19-1.29-3.23.61-5.43-2.67-1.82-2.73-2-5.67,0-7s4.6,0,6.39,2.66c2.21,3.31-.27,4.56.4,6.05l2.85,4.06,2.78-3.94c-1.27-1.15-1.74-2.72-1-3.76Z"/></g></svg>